HIERARCHY
ROOT Hips
{
	OFFSET 0.00000 0.00000 0.00000
	CHANNELS 6 Xposition Yposition Zposition Zrotation Yrotation Xrotation 
	JOINT RightUpLegDummy
	{
		OFFSET 0 0 0
		CHANNELS 3 Zrotation Yrotation Xrotation
		JOINT RightUpLeg
		{
			OFFSET -3.52197 -3.41223 0.04002
			CHANNELS 3 Zrotation Yrotation Xrotation
			JOINT RightLeg
			{
				OFFSET 0.00006 -17.42390 1.60435
				CHANNELS 3 Zrotation Yrotation Xrotation
				JOINT RightFoot
				{
					OFFSET 0.06154 -16.50078 -1.63900
					CHANNELS 3 Zrotation Yrotation Xrotation
					JOINT RightToes
					{
						OFFSET 0.00298 -1.73825 3.34613
						CHANNELS 3 Zrotation Yrotation Xrotation
						End Site
						{
							OFFSET 0.00480 -0.05416 3.85043
						}
					}
				}
			}
		}
	}
	JOINT SpineDummy
	{
		OFFSET 0 0 0
		CHANNELS 3 Zrotation Yrotation Xrotation
		JOINT Spine
		{
			OFFSET 0.00000 4.68130 0.00000
			CHANNELS 3 Zrotation Yrotation Xrotation
			JOINT Spine1
			{
				OFFSET -0.00000 10.10138 0.05002
				CHANNELS 3 Zrotation Yrotation Xrotation
				JOINT HEadDummy
				{
					OFFSET 0 0 0
					CHANNELS 3 Zrotation Yrotation Xrotation
					JOINT Head
					{
						OFFSET -0.00000 3.43865 0.00438
						CHANNELS 3 Zrotation Yrotation Xrotation
						End Site
						{
							OFFSET -0.11417 5.02924 0.98962
						}
					}
				}
				JOINT LeftShoulder1Dummy
				{
					OFFSET 0 0 0
					CHANNELS 3 Zrotation Yrotation Xrotation
					JOINT LeftShoulder1
					{
						OFFSET 3.53937 -0.14262 -0.08662
						CHANNELS 3 Zrotation Yrotation Xrotation
						JOINT LeftArm
						{
							OFFSET 4.04833 -0.00133 0.12681
							CHANNELS 3 Zrotation Yrotation Xrotation
							JOINT LeftForeArm
							{
								OFFSET 10.33880 -0.01036 -0.55515
								CHANNELS 3 Zrotation Yrotation Xrotation
								JOINT LeftHand
								{
									OFFSET 8.69677 0.07543 0.40060
									CHANNELS 3 Zrotation Yrotation Xrotation
									End Site
									{
										OFFSET 5.28377 -0.21905 0.59205
									}
								}
							}
						}
					}
				}
				JOINT RightShoulderDummy
				{
					OFFSET 0 0 0
					CHANNELS 3 Zrotation Yrotation Xrotation
					JOINT RightShoulder
					{
						OFFSET -3.53937 -0.14262 -0.08660
						CHANNELS 3 Zrotation Yrotation Xrotation
						JOINT RightArm
						{
							OFFSET -4.04833 -0.00133 0.12683
							CHANNELS 3 Zrotation Yrotation Xrotation
							JOINT RightForeArm
							{
								OFFSET -10.37987 -0.01039 -0.55511
								CHANNELS 3 Zrotation Yrotation Xrotation
								JOINT RightHand
								{
									OFFSET -8.67398 0.07538 0.40058
									CHANNELS 3 Zrotation Yrotation Xrotation
									End Site
									{
										OFFSET -5.24810 -0.21916 0.59204
									}
								}
							}
						}
					}
				}
			}
		}
	}
	JOINT LeftUpLegDummy
	{
		OFFSET 0 0 0
		CHANNELS 3 Zrotation Yrotation Xrotation
		JOINT LeftUpLeg
		{
			OFFSET 3.52197 -3.41223 0.04002
			CHANNELS 3 Zrotation Yrotation Xrotation
			JOINT LeftLeg
			{
				OFFSET -0.00012 -17.42399 1.60337
				CHANNELS 3 Zrotation Yrotation Xrotation
				JOINT LeftFoot
				{
					OFFSET -0.09972 -16.50070 -1.63802
					CHANNELS 3 Zrotation Yrotation Xrotation
					JOINT LeftToes
					{
						OFFSET -0.01575 -1.73823 3.34611
						CHANNELS 3 Zrotation Yrotation Xrotation
						End Site
						{
							OFFSET 0.03150 -0.01868 3.85031
						}
					}
				}
			}
		}
	}
}
MOTION
Frames: 14
Frame Time: 0.033333
-5.6349 39.7234 -4.8402 176.1930 42.1448 175.4920 0.0000 0.0000 0.0000 -8.6444 -10.1318 -4.5301 -6.0154 -15.8378 15.1043 11.1407 -0.8269 -3.0761 0.0000 0.0000 -0.0000 0.0000 0.0000 0.0000 -10.9774 -0.1253 -8.2442 -0.1550 0.3865 25.9378 0.0000 0.0000 0.0000 4.1133 9.7423 -7.5799 0.0000 0.0000 0.0000 -20.1190 -4.1079 2.0219 -55.7854 -10.5445 26.7916 -150.5063 -84.7404 81.1848 36.1881 5.3276 -0.0294 0.0000 0.0000 0.0000 19.6355 0.4516 1.0338 59.7693 10.0825 18.4407 0.4907 24.5236 1.8469 -4.1655 2.2936 -0.2556 0.0000 0.0000 0.0000 -4.0965 -0.5117 3.4204 1.6071 10.0970 7.2302 1.1176 0.0291 -8.6539 0.0000 -0.0000 -0.0000
-5.6515 39.7234 -4.8285 176.1880 41.9906 175.5380 0.0000 0.0000 0.0000 -8.6657 -10.2836 -4.5739 -6.0061 -15.8438 15.0955 11.1412 -0.8270 -3.0550 0.0000 0.0000 -0.0000 0.0000 0.0000 0.0000 -10.8224 -0.1521 -8.2197 -0.4243 0.4579 26.0095 0.0000 0.0000 0.0000 3.8302 11.4459 -7.9252 0.0000 0.0000 0.0000 -20.0776 -4.0632 2.0071 -55.7335 -10.7125 26.9146 -149.4888 -84.8963 79.9333 35.4750 5.8716 0.1401 0.0000 0.0000 0.0000 19.7489 0.4136 1.0281 59.7126 10.1367 18.6935 0.4994 24.5234 1.6798 -4.2908 2.2307 -0.2621 0.0000 0.0000 0.0000 -4.1218 -0.5541 3.2960 1.6245 9.9832 7.2920 1.1210 0.0289 -8.6316 0.0000 -0.0000 -0.0000
-5.6769 39.7239 -4.8121 176.1540 41.7892 175.5560 0.0000 0.0000 0.0000 -8.7181 -10.4234 -4.6159 -6.0208 -15.9029 15.0966 11.1499 -0.8277 -3.0192 0.0000 0.0000 -0.0000 0.0000 0.0000 0.0000 -10.6161 -0.1403 -8.1783 -0.7726 0.6053 26.1573 0.0000 0.0000 0.0000 2.9778 14.1282 -8.6718 0.0000 0.0000 0.0000 -20.1200 -4.0515 2.0071 -55.5645 -10.8342 27.1150 -148.7747 -85.0010 79.1755 34.9273 6.1530 0.2238 0.0000 0.0000 0.0000 19.8508 0.3458 1.0140 59.7127 10.2597 19.1636 0.5146 24.4139 1.3786 -4.6663 2.0580 -0.2812 0.0000 0.0000 0.0000 -4.1836 -0.6327 3.1829 1.6381 9.8611 7.3100 1.1401 0.0276 -8.5730 0.0000 -0.0000 -0.0000
-5.6972 39.7262 -4.8008 176.1110 41.6557 175.5170 0.0000 0.0000 0.0000 -8.7755 -10.4605 -4.5935 -6.0453 -15.9960 15.0756 11.1738 -0.8302 -2.9837 0.0000 0.0000 -0.0000 0.0000 0.0000 0.0000 -10.5128 -0.0755 -8.1082 -0.9283 0.7366 26.2620 0.0000 0.0000 0.0000 1.9208 16.1392 -9.4068 0.0000 0.0000 0.0000 -20.2315 -4.1530 2.0419 -55.3449 -10.7051 27.2719 -149.0719 -84.9681 80.0070 35.4261 5.5911 0.0521 0.0000 0.0000 0.0000 19.8172 0.3080 1.0028 59.8387 10.3572 19.4946 0.5175 24.2406 1.3341 -5.0625 1.9890 -0.3043 0.0000 0.0000 0.0000 -4.2436 -0.6979 3.1801 1.6296 9.7933 7.2490 1.1726 0.0255 -8.5063 0.0000 -0.0000 -0.0000
-5.7122 39.7296 -4.7926 176.1190 41.5194 175.5060 0.0000 0.0000 0.0000 -8.7947 -10.5312 -4.5278 -6.0396 -16.0728 15.0009 11.1738 -0.8332 -2.9483 0.0000 0.0000 -0.0000 0.0000 0.0000 0.0000 -10.4689 -0.0394 -7.9951 -0.9604 0.7800 26.2428 0.0000 0.0000 0.0000 1.1227 17.2542 -9.8105 0.0000 0.0000 0.0000 -20.2913 -4.2901 2.0828 -55.1341 -10.4061 27.3761 -149.4123 -84.9319 80.9087 36.0809 5.0383 -0.1202 0.0000 0.0000 0.0000 19.7096 0.3177 1.0015 60.0143 10.3745 19.5202 0.5016 24.1698 1.6889 -5.2251 2.1325 -0.3198 0.0000 0.0000 0.0000 -4.2468 -0.7181 3.1784 1.6054 9.6685 7.2213 1.2106 0.0231 -8.4684 0.0000 -0.0000 -0.0000
-5.7258 39.7324 -4.7844 176.1630 41.3657 175.5450 0.0000 0.0000 0.0000 -8.7853 -10.6606 -4.4855 -6.0138 -16.1140 14.9218 11.1407 -0.8329 -2.9139 0.0000 0.0000 -0.0000 0.0000 0.0000 0.0000 -10.3724 -0.0451 -7.8960 -1.0674 0.8043 26.1896 0.0000 0.0000 0.0000 0.5993 18.1466 -9.9993 0.0000 0.0000 0.0000 -20.2651 -4.3413 2.0946 -54.8951 -10.1224 27.5205 -149.2436 -84.9470 80.5814 35.7312 5.3471 -0.0239 0.0000 0.0000 0.0000 19.6327 0.3272 1.0013 60.1434 10.3572 19.3492 0.4799 24.3088 2.0398 -5.1628 2.2514 -0.3201 0.0000 0.0000 0.0000 -4.2129 -0.7097 3.1192 1.5784 9.4967 7.2546 1.2498 0.0206 -8.4501 0.0000 -0.0000 -0.0000
-5.7359 39.7340 -4.7801 176.1390 41.3430 175.5180 0.0000 0.0000 0.0000 -8.8152 -10.6680 -4.4834 -6.0165 -16.1230 14.9192 11.1203 -0.8326 -2.8961 0.0000 0.0000 -0.0000 0.0000 0.0000 0.0000 -10.2329 0.0153 -7.8890 -1.2735 0.9544 26.2472 0.0000 0.0000 0.0000 0.1502 19.1209 -10.2241 0.0000 0.0000 0.0000 -20.1909 -4.3041 2.0792 -54.6072 -9.9396 27.7905 -149.2007 -84.9439 79.9275 34.8161 6.0515 0.1919 0.0000 0.0000 0.0000 19.5962 0.2938 0.9913 60.1996 10.3586 19.1295 0.4803 24.6115 2.0500 -5.1180 2.1663 -0.3141 0.0000 0.0000 0.0000 -4.2340 -0.7165 3.1331 1.5550 9.4843 7.2163 1.2788 0.0187 -8.4094 0.0000 -0.0000 -0.0000
-5.7383 39.7344 -4.7829 176.0120 41.5018 175.3510 0.0000 0.0000 0.0000 -8.9124 -10.5082 -4.4706 -6.0477 -16.0900 14.9903 11.1401 -0.8345 -2.9070 0.0000 0.0000 -0.0000 0.0000 0.0000 0.0000 -10.1423 0.1849 -7.9530 -1.4626 1.2337 26.4011 0.0000 0.0000 0.0000 -0.1958 19.8877 -10.4429 0.0000 0.0000 0.0000 -20.0638 -4.2574 2.0576 -54.3624 -9.8357 28.1650 -149.5277 -84.8923 80.0906 34.5588 6.1621 0.2231 0.0000 0.0000 0.0000 19.5580 0.2486 0.9781 60.2057 10.3735 18.9841 0.4912 24.9343 1.8610 -5.2436 2.0528 -0.3181 0.0000 0.0000 0.0000 -4.3390 -0.7525 3.3115 1.5376 9.6936 7.0478 1.2857 0.0183 -8.3448 0.0000 -0.0000 -0.0000
-5.7361 39.7347 -4.7880 175.8990 41.6325 175.1630 0.0000 0.0000 0.0000 -9.0108 -10.4240 -4.4010 -6.0504 -16.0106 15.0453 11.1628 -0.8364 -2.9305 0.0000 0.0000 -0.0000 0.0000 0.0000 0.0000 -10.1053 0.3397 -7.9881 -1.6018 1.4734 26.5153 0.0000 0.0000 0.0000 -0.3027 20.3352 -10.4814 0.0000 0.0000 0.0000 -19.8672 -4.2289 2.0359 -54.2499 -9.7738 28.5380 -149.7814 -84.8615 80.8214 34.8936 5.7107 0.0878 0.0000 0.0000 0.0000 19.5210 0.2503 0.9773 60.1946 10.4090 18.9637 0.4988 25.1433 1.7267 -5.3991 2.0517 -0.3280 0.0000 0.0000 0.0000 -4.4332 -0.7815 3.5243 1.5256 9.8713 6.8919 1.2877 0.0181 -8.3002 0.0000 -0.0000 -0.0000
-5.7338 39.7359 -4.7897 175.9110 41.5504 175.0940 0.0000 0.0000 0.0000 -9.0374 -10.5668 -4.2786 -6.0056 -15.9426 15.0171 11.1494 -0.8362 -2.9361 0.0000 0.0000 -0.0000 0.0000 0.0000 0.0000 -10.0555 0.3758 -7.9572 -1.7284 1.5613 26.5431 0.0000 0.0000 0.0000 -0.2366 20.7075 -10.3664 0.0000 0.0000 0.0000 -19.6820 -4.2036 2.0159 -54.2128 -9.7360 28.8128 -149.7978 -84.8663 81.3331 34.7956 5.4837 0.0179 0.0000 0.0000 0.0000 19.5186 0.2857 0.9864 60.1915 10.5117 19.0175 0.5052 25.1895 1.6081 -5.3948 2.0282 -0.3269 0.0000 0.0000 0.0000 -4.4253 -0.7648 3.6209 1.5103 9.7958 6.8668 1.3153 0.0163 -8.2921 0.0000 -0.0000 -0.0000
-5.7323 39.7391 -4.7895 176.0000 41.3476 175.1180 0.0000 0.0000 0.0000 -9.0072 -10.7376 -4.1399 -5.9703 -15.9819 14.9269 11.1216 -0.8356 -2.9146 0.0000 0.0000 -0.0000 0.0000 0.0000 0.0000 -9.9992 0.3627 -7.9178 -1.8055 1.5707 26.5561 0.0000 0.0000 0.0000 -0.1597 21.1054 -10.2427 0.0000 0.0000 0.0000 -19.6213 -4.1945 2.0092 -54.1388 -9.7359 28.9694 -149.9045 -84.8502 81.5616 34.1736 5.6629 0.0704 0.0000 0.0000 0.0000 19.5517 0.2791 0.9858 60.1923 10.6716 19.0254 0.5080 25.1364 1.5514 -5.3023 1.9914 -0.3196 0.0000 0.0000 0.0000 -4.3515 -0.7206 3.6431 1.4819 9.5727 6.8847 1.3569 0.0137 -8.2839 0.0000 -0.0000 -0.0000
-5.7295 39.7440 -4.7885 176.0570 41.1928 175.1370 0.0000 0.0000 0.0000 -8.9780 -10.7281 -4.0228 -5.9905 -16.1474 14.8317 11.1209 -0.8374 -2.8783 0.0000 0.0000 -0.0000 0.0000 0.0000 0.0000 -9.9945 0.3971 -7.9067 -1.7886 1.6035 26.5898 0.0000 0.0000 0.0000 -0.1131 21.4025 -10.1643 0.0000 0.0000 0.0000 -19.6717 -4.2018 2.0147 -54.0489 -9.8184 29.0463 -150.1469 -84.8153 81.7604 33.8502 5.8284 0.1183 0.0000 0.0000 0.0000 19.5879 0.2184 0.9713 60.1963 10.7934 18.9294 0.4914 25.1132 1.8664 -5.3052 2.1860 -0.3271 0.0000 0.0000 0.0000 -4.2992 -0.6973 3.6855 1.4471 9.4031 6.8342 1.3706 0.0128 -8.2502 0.0000 -0.0000 -0.0000
-5.7284 39.7490 -4.7878 176.0780 41.0752 175.1500 0.0000 0.0000 0.0000 -8.9652 -10.6465 -3.9457 -6.0345 -16.3424 14.7555 11.1507 -0.8422 -2.8363 0.0000 0.0000 -0.0000 0.0000 0.0000 0.0000 -10.0104 0.4397 -7.8851 -1.7657 1.6458 26.5975 0.0000 0.0000 0.0000 -0.0947 21.5781 -10.1384 0.0000 0.0000 0.0000 -19.7198 -4.1722 2.0104 -54.0742 -9.9906 29.0652 -150.2398 -84.7985 81.8011 33.9625 5.8946 0.1386 0.0000 0.0000 0.0000 19.5916 0.1990 0.9664 60.2214 10.8214 18.7722 0.4603 25.1994 2.4652 -5.3569 2.5078 -0.3426 0.0000 0.0000 0.0000 -4.2780 -0.7023 3.7180 1.4159 9.2843 6.7589 1.3662 0.0131 -8.2097 0.0000 -0.0000 -0.0000
-5.7318 39.7532 -4.7882 176.1110 40.9175 175.1960 0.0000 0.0000 0.0000 -8.9571 -10.6770 -3.8959 -6.0493 -16.4731 14.6885 11.1890 -0.8489 -2.7928 0.0000 0.0000 -0.0000 0.0000 0.0000 0.0000 -9.9527 0.4236 -7.8178 -1.8489 1.6576 26.5528 0.0000 0.0000 0.0000 -0.1578 21.7278 -10.1898 0.0000 0.0000 0.0000 -19.7270 -4.0848 1.9881 -54.2563 -10.1814 29.0095 -150.3719 -84.7750 81.8029 33.8704 6.0993 0.1986 0.0000 0.0000 0.0000 19.5446 0.2867 0.9876 60.3200 10.8099 18.6311 0.4502 25.3527 2.6657 -5.2531 2.4859 -0.3348 0.0000 0.0000 0.0000 -4.2513 -0.7030 3.6969 1.3796 9.1316 6.7224 1.4012 0.0108 -8.1759 0.0000 -0.0000 -0.0000
